<?xml version="1.0" encoding="utf-8"?>
<!-- Generator: Adobe Illustrator 18.0.0, SVG Export Plug-In . SVG Version: 6.00 Build 0)  -->
<!DOCTYPE svg PUBLIC "-//W3C//DTD SVG 1.1//EN" "http://www.w3.org/Graphics/SVG/1.1/DTD/svg11.dtd">
<svg version="1.1" id="Layer_1" xmlns="http://www.w3.org/2000/svg" xmlns:xlink="http://www.w3.org/1999/xlink" x="0px" y="0px"
	 viewBox="0 0 2048 1536" enable-background="new 0 0 2048 1536" xml:space="preserve">
<g>
	<g>
		<path d="M931.8,896.2c-1.9,4-11.6,7.6-20.9,7.6c-93.7,0-124.3-118.7-148.7-159.1c-4.8,1-9.8,1.3-15,1.3
			c-15.8,0-14.5-17.1,0.6-17.1c5.8,0,11.4,4.5,17.2,11.9C797,733.4,821,706,821,676.9c0-34.5-26.6-48.2-52.5-51.5
			c-3.5-0.5-4,0.8-4.8,2.7c-3.1,9.2-33.3,104.7-41.6,127.1c-9.8,26.7-33.2,68.8-75.9,68.8c-80.5,0-78.6-84.7-28.5-107.3
			c4-41.7,54.9-95.5,136.4-95.5c44.9,0,76.2,20.9,76.2,54.6c0,30.6-28.3,59.6-63.1,68c29.5,41.7,64.1,157.5,143.7,157.5
			c12.1,0,15.3-5.2,16.8-8.1C929.2,890.4,933.7,892.2,931.8,896.2z M752.2,624.4c-35.4-0.8-113.1,17.9-125.9,89.2
			c5.5-1.4,11.4-2.3,17.9-2.3c53,0,38,51.9,7.2,51.9c-22.4,0-33.3-21.4-33.8-41.9c-40.1,23.8-39.3,99.5,29.5,99.5
			c19,0,49.6-13.4,67.2-67.5c17.4-54.1,30.4-94.4,39.8-125.6C754.5,626.1,754.5,624.5,752.2,624.4z M651.6,758.9
			c27.1,0,39-44.5-7.4-44.5c-6.6,0-12.7,1.1-18.2,3.1C624.8,737,633.2,758.9,651.6,758.9z M760.4,741.8c-4.3-6.6-8.4-10.5-12.7-10.5
			c-10.8,0-10.1,11.6-0.2,11.6C751.9,742.9,756.2,742.6,760.4,741.8z"/>
		<path d="M868.8,770.6c-0.3,17.4-12.6,41.2-32.4,41.2c-14.7,0-19-11.6-18.8-21.4c0.5-26.3,28.7-62,49-62c4.3,0,15.1,1.9,14.8,20.5
			h0.6c5.2-14.2,11-18.7,16.8-18.7c2.1,0,2.7,0.5,2.7,0.8c0,0.3-0.3,0.6-0.5,0.8c-7.1,4.5-10.5,15.6-20.5,45.6
			c-2.1,6.1-5,14.8-5.2,20.9c-0.2,4.3,1.9,7.6,6,7.6c6.4,0,11.6-7.1,14.7-12.7c0.2-0.3,0.5-0.6,0.8-0.6c0.6,0,0.5,0.8,0.3,1.3
			c-3.1,8.7-10.6,18.2-20.8,18.2c-6.4,0-10-4.3-9.8-11.3c0.2-10.3,6.3-26.1,11.3-40.6c1-3.2,1.8-6.9,1.8-10.8
			c0.2-9-3.1-17.7-11.8-17.7c-18.7,0-40.3,35.6-40.6,57.5c-0.2,9.8,3.9,16.8,14.2,16.8c13.4,0,25.4-19.2,25.8-34.9
			c0-3.4-0.3-6.8-1.6-9.7c-0.2-0.3-0.3-0.8-0.3-1c0-0.6,0.3-1,0.8-1c0.3,0,0.8,0.3,1.1,1C868.4,763.2,868.8,766.8,868.8,770.6z"/>
		<path d="M967.9,811.8c-12.9-0.5-16.6-6.8-15-15.9c-9.5,9.7-20.6,16.6-30.9,15.9c-12.2-0.6-16.8-8.1-16.6-16.6
			c0.5-20.9,39.3-61.5,24.2-62.8c-3.5-0.3-9.3,5.2-15,12.6c-0.8,1.3-2.6,0.2-1.4-1.3c4.3-5.5,14.3-16.9,23.4-15.6
			c21.6,3.2-20.1,48-20.8,68.1c-0.3,6.3,1.8,11.9,10.5,11.9c18.7,0.2,42.2-33,43.6-54c1-13.7-3.7-14.5-4.8-20.8
			c-0.8-4,6.1-9.3,10.1-1.6c1.8,3.7,3.1,9.8,2.4,18.5c-1.1,15.8-9.7,30.6-11.6,35.1c-4.8,11.1-6.9,22.5,7.1,22.7
			c18.4,0.3,37.2-38,35.6-57.7c-1.3-13.7-8.1-12.7-8.9-18.2c-0.8-3.9,2.6-6.3,5.8-6.4c5.6-0.5,7.4,7.4,7.6,22.9
			C1013.5,770.6,996.4,813,967.9,811.8z"/>
		<path d="M1028.4,805.9c-0.6,1.8-1.4,2.9-3.5,3.9c-1.9,0.8-5,1.9-5.5,2.1c-1,0.3-1.9-0.2-1.4-1.6c0.5-1.3,16.9-50.7,20.3-60.6
			c3.4-9.8,2.9-16.9-3.1-16.9c-5.5,0-13.9,11.9-14.5,12.9c-0.8,1.1-2.6,0.3-1.6-1c1-1.4,11.4-16.9,21.1-16.9
			c12.9,0,8.2,18.2,6.3,23.4h0.5c5.5-9,16.3-23.4,31.1-23.4c7.1,0,12.4,5.5,12.4,11.9c0,12.2-11,16.1-15.6,9.8
			c-2.7-3.9-1.1-9.8,4.3-11.3c6.1-1.6,3.4-8.2-3.2-8.2c-11.6,0-29.2,18.4-37.7,46.7C1037.6,779,1029.1,804.3,1028.4,805.9z"/>
		<path d="M1108.8,812c-16.1-0.5-17.7-12.1-13.4-23.2c6.4-15.5,15.5-35.3,17.1-39.6c4.2-10.3,3.7-16.8-2.3-16.9
			c-5.5,0-14.2,11.9-14.8,12.9c-1.1,1.1-2.6,0.3-1.6-1c1-1.3,12.1-16.9,21.7-16.9c6.8,0,12.7,4.7,5.8,22.9c-7.9,20.6-30.6,56-9,57.5
			c11.9,0.8,25.1-13.7,33.3-32.4c3.9-8.4,6.9-16.6,10.6-26.4c5.8-14.7,11.9-19.6,18-20c3.5-0.2,2.4,1.4,2.1,1.6
			c-6.8,4.8-11.1,16.9-21.6,46.9c-3.5,10.6-10.5,27.4,0.2,28.5c6.1,0.5,11.9-6.9,15-12.7c0.8-0.8,1.6-0.5,1.1,0.6
			c-3.1,8.7-11.8,18.7-21.9,18.2c-12.1-0.6-11-13.5-6.9-24h-0.3C1137.6,795.6,1124.9,812.3,1108.8,812z"/>
		<path d="M1133.6,883.7c-4,0.6-8.4,1-13.2,1c-56.2,0-100.7-39.1-194.4-39.1c-21.9,0-92.3,4-92.3,45.1c0,8.9-8.4,10.3-8.4,3.7
			c0-1,0.3-2.1,0.6-3.5c11.9-42.4,74.6-51.2,107.3-51.2c78.4,0,147,40.6,195.4,40.6c1.1,0,2.1,0,3.1-0.2c-1.3-3.2-2.1-6.8-2.1-10.6
			c0-12.1,10.5-26.7,22.1-26.7c9,0,13.5,5,13.5,13.7c0,11.8-9.3,23-29,26.9c4,5,10.8,8.2,20.5,8.2c38,0,68-38,68.8-63.8
			c0.8-31.9-28.3-32.4-35.9-29c-2.9,1.3-11.1,0.5-1.6-8.1c19.8-17.6,48.6-43.2,49.1-44.8c-8.4-3.5-13.4-8.9-24.2-8.9
			c-7.9,0-17.6,3.9-22.9,14.7c-1.1,2.1-4,1.6-2.4-1c4.8-7.9,12.9-23,25.3-23c11.1,0,17.2,14.5,24.5,14.5c4,0,6.6-5.5,9.8-9.2
			c6.1-7.4,11.4-3.1,6.9,3.5c-6.6,9.8-11.9,9.7-20,17.1c-4.7,4.2-20,18-32.5,30.1c-6,5.5-9.3,10.5-0.6,11
			c8.5,0.6,33.5,5.5,33.5,28.7c0,25.8-32.9,70.9-78.1,70.9C1145.5,894.1,1138,890.1,1133.6,883.7z M1151.7,844.7
			c-9.2,0-19.8,11.6-19.8,24.8c0,3.7,0.8,7.2,2.3,10.3c20.6-1.6,28.8-13.2,28.8-23.7C1162.9,849.2,1158.9,844.7,1151.7,844.7z"/>
	</g>
	<g>
		<path d="M665.6,849.8c3.9,4.6,6.5,10.4,6.5,16.9c0,12.1-11.9,11.1-11.9-1.5c0-6.1,0.7-11.3,2-16c-5.9-5.8-14.5-9.1-23.2-9.1
			c-33.8,0-59.8,38.6-99.9,38.6c-76.9,0-89.5-115.3-0.2-115.3c11,0,23.2,1.7,37,5.6c2,0.6,1.5,2.8-2.2,1.9
			c-10.6-2.8-20.2-4.1-29-4.1c-80.2,0-73.4,110.3-5.2,110.3c37.5,0,63.1-39,99.5-39c8.5,0,17.5,3.3,24,9.1
			c20.8-59.4,156.6,18,156.6-40.3c0-1.9,3.2-1.9,3.2,0.4C822.7,868,688.3,805.2,665.6,849.8z M670.1,866.7c0-5.6-2-10.6-5.4-14.9
			c-1.5,3.7-2.4,8.2-2.4,13.4C662.3,875.4,670.1,875.6,670.1,866.7z"/>
	</g>
	<g>
		<path d="M1024,807.2c0-2.2,3.2-2.2,3.2-0.4c0,58.3,135.8-19.1,156.6,40.3c6.5-5.8,15.4-9.1,24-9.1c36.4,0,62,39,99.5,39
			c68.2,0,75-110.3-5.2-110.3c-8.7,0-18.4,1.3-29,4.1c-3.7,0.9-4.3-1.3-2.2-1.9c13.7-3.9,26-5.6,37-5.6c89.3,0,76.7,115.3-0.2,115.3
			c-40.1,0-66.1-38.6-99.9-38.6c-8.7,0-17.3,3.3-23.2,9.1c1.3,4.6,2,9.8,2,16c0,12.6-11.9,13.6-11.9,1.5c0-6.5,2.6-12.3,6.5-16.9
			C1158.5,805.2,1024,868,1024,807.2z M1184.5,865.2c0-5.2-0.9-9.7-2.4-13.4c-3.3,4.3-5.4,9.3-5.4,14.9
			C1176.7,875.6,1184.5,875.4,1184.5,865.2z"/>
	</g>
	<g>
		<path d="M1009.4,688.9c4.8,9.3,7.5,19.6,7.5,30.5c0,21.5-22,21.5-22,0.3c0-14.4,4-25,11.1-32.9c-17.2-29.4-55.9-49.1-96.3-49.1
			c-62.9,0-66.8,65.6-4.8,65.6c1.4,0,1.6,1.9,0,1.9c-68.7,0-65.3-69,4.8-69c42.4,0,80.6,19.9,97.6,49.1
			c54.4-54.9,270.3,39.5,302.6-27.3c0.5-1,2.1,0,1.4,1.4C1281.5,731.6,1064.9,642.2,1009.4,688.9z M1015.2,719.5
			c0-10.4-2.6-20.4-7.2-29.5c-7.4,6.9-11.6,16.5-11.6,29.7C996.4,739,1015.2,739.1,1015.2,719.5z"/>
	</g>
</g>
</svg>
