<?xml version="1.0" encoding="utf-8"?>
<!-- Generator: Adobe Illustrator 18.0.0, SVG Export Plug-In . SVG Version: 6.00 Build 0)  -->
<!DOCTYPE svg PUBLIC "-//W3C//DTD SVG 1.1//EN" "http://www.w3.org/Graphics/SVG/1.1/DTD/svg11.dtd">
<svg version="1.1" id="Layer_1" xmlns="http://www.w3.org/2000/svg" xmlns:xlink="http://www.w3.org/1999/xlink" x="0px" y="0px"
	 viewBox="0 0 896.5 282.7" fill="white" style="enable-background:new 0 0 896.5 282.7;" xml:space="preserve">
<g>
	<path d="M458,272.3c-1.9,3.9-11.4,7.4-20.5,7.4c-91.8,0-121.8-116.3-145.6-155.9c-4.7,0.9-9.6,1.3-14.7,1.3
		c-15.5,0-14.2-16.7,0.6-16.7c5.7,0,11.2,4.4,16.9,11.7c31.2-7.3,54.7-34.1,54.7-62.6c0-33.8-26-47.2-51.4-50.5
		c-3.5-0.5-3.9,0.8-4.7,2.7c-3,9-32.7,102.5-40.7,124.5c-9.6,26.2-32.5,67.4-74.3,67.4c-78.9,0-77-83-27.9-105.1
		C154.3,55.6,204.2,2.9,284,2.9c44,0,74.6,20.5,74.6,53.5c0,30-27.8,58.4-61.8,66.6c28.9,40.9,62.8,154.3,140.7,154.3
		c11.8,0,15-5,16.4-7.9C455.5,266.7,459.9,268.4,458,272.3z M282.1,6.1c-34.7-0.8-110.7,17.5-123.4,87.4c5.4-1.4,11.2-2.2,17.5-2.2
		c51.9,0,37.2,50.8,7.1,50.8c-21.9,0-32.7-21-33.1-41c-39.3,23.3-38.5,97.5,28.9,97.5c18.6,0,48.6-13.1,65.8-66.1
		c17-53,29.8-92.4,39-123C284.3,7.8,284.3,6.2,282.1,6.1z M183.5,137.8c26.5,0,38.2-43.5-7.3-43.5c-6.5,0-12.5,1.1-17.8,3
		C157.3,116.3,165.5,137.8,183.5,137.8z M290.1,121.1c-4.3-6.5-8.2-10.3-12.5-10.3c-10.6,0-9.9,11.4-0.2,11.4
		C281.8,122.2,286,121.8,290.1,121.1z"/>
	<path d="M396.3,149.3c-0.3,17-12.3,40.4-31.7,40.4c-14.4,0-18.6-11.4-18.5-21c0.5-25.7,28.1-60.7,48-60.7c4.3,0,14.8,1.9,14.5,20
		h0.6c5-13.9,10.7-18.3,16.4-18.3c2.1,0,2.7,0.5,2.7,0.8c0,0.3-0.3,0.6-0.5,0.8c-6.9,4.4-10.3,15.3-20,44.6c-2.1,6-4.9,14.5-5,20.5
		c-0.2,4.3,1.9,7.4,5.8,7.4c6.3,0,11.4-6.9,14.4-12.5c0.2-0.3,0.5-0.6,0.8-0.6c0.6,0,0.5,0.8,0.3,1.3c-3,8.5-10.4,17.8-20.3,17.8
		c-6.3,0-9.8-4.3-9.6-11c0.2-10.1,6.2-25.6,11-39.8c0.9-3.2,1.7-6.8,1.7-10.6c0.2-8.8-3-17.4-11.5-17.4c-18.3,0-39.4,34.9-39.8,56.3
		c-0.2,9.6,3.8,16.4,13.9,16.4c13.1,0,24.9-18.8,25.2-34.2c0-3.3-0.3-6.6-1.6-9.5c-0.2-0.3-0.3-0.8-0.3-0.9c0-0.6,0.3-0.9,0.8-0.9
		c0.3,0,0.8,0.3,1.1,0.9C395.8,142,396.3,145.5,396.3,149.3z"/>
	<path d="M493.3,189.7c-12.6-0.5-16.2-6.6-14.7-15.6c-9.3,9.5-20.2,16.2-30.3,15.6c-12-0.6-16.4-7.9-16.2-16.2
		c0.5-20.5,38.5-60.3,23.7-61.5c-3.5-0.3-9.1,5-14.7,12.3c-0.8,1.3-2.5,0.2-1.4-1.3c4.3-5.4,14-16.6,22.9-15.3
		c21.1,3.2-19.7,47-20.3,66.7c-0.3,6.2,1.7,11.7,10.3,11.7c18.3,0.2,41.3-32.3,42.7-52.8c0.9-13.4-3.6-14.2-4.7-20.3
		c-0.8-3.9,6-9.1,9.9-1.6c1.7,3.6,3,9.6,2.4,18.1c-1.1,15.5-9.5,30-11.4,34.4c-4.7,10.9-6.8,22.1,6.9,22.2
		c18,0.3,36.4-37.2,34.9-56.5c-1.3-13.4-7.9-12.5-8.7-17.8c-0.8-3.8,2.5-6.2,5.7-6.3c5.5-0.5,7.3,7.3,7.4,22.4
		C538,149.3,521.3,190.8,493.3,189.7z"/>
	<path d="M552.6,183.8c-0.6,1.7-1.4,2.8-3.5,3.8c-1.9,0.8-4.9,1.9-5.4,2.1c-0.9,0.3-1.9-0.2-1.4-1.6c0.5-1.3,16.6-49.7,19.9-59.3
		c3.3-9.6,2.8-16.6-3-16.6c-5.4,0-13.6,11.7-14.2,12.6c-0.8,1.1-2.5,0.3-1.6-0.9c0.9-1.4,11.2-16.6,20.7-16.6
		c12.6,0,8,17.8,6.2,22.9h0.5c5.4-8.8,15.9-22.9,30.4-22.9c6.9,0,12.1,5.4,12.1,11.7c0,12-10.7,15.8-15.3,9.6
		c-2.7-3.8-1.1-9.6,4.3-11c6-1.6,3.3-8-3.2-8c-11.4,0-28.6,18-36.9,45.7C561.6,157.5,553.3,182.3,552.6,183.8z"/>
	<path d="M631.4,189.8c-15.8-0.5-17.4-11.8-13.1-22.7c6.3-15.1,15.1-34.5,16.7-38.8c4.1-10.1,3.6-16.4-2.2-16.6
		c-5.4,0-13.9,11.7-14.5,12.6c-1.1,1.1-2.5,0.3-1.6-0.9c0.9-1.3,11.8-16.6,21.3-16.6c6.6,0,12.5,4.6,5.7,22.4
		c-7.7,20.2-30,54.9-8.8,56.3c11.7,0.8,24.6-13.4,32.7-31.7c3.8-8.2,6.8-16.2,10.4-25.9c5.7-14.4,11.7-19.2,17.7-19.6
		c3.5-0.2,2.4,1.4,2.1,1.6c-6.6,4.7-10.9,16.6-21.1,45.9c-3.5,10.4-10.3,26.8,0.2,27.9c6,0.5,11.7-6.8,14.7-12.5
		c0.8-0.8,1.6-0.5,1.1,0.6c-3,8.5-11.5,18.3-21.5,17.8c-11.8-0.6-10.7-13.3-6.8-23.5h-0.3C659.6,173.7,647.1,190.1,631.4,189.8z"/>
	<path d="M655.7,260c-3.9,0.6-8.2,0.9-12.9,0.9c-55.1,0-98.6-38.3-190.4-38.3c-21.5,0-90.4,3.9-90.4,44.2c0,8.7-8.2,10.1-8.2,3.6
		c0-0.9,0.3-2.1,0.6-3.5c11.7-41.5,73-50.2,105.1-50.2c76.8,0,144,39.8,191.3,39.8c1.1,0,2.1,0,3-0.2c-1.3-3.2-2.1-6.6-2.1-10.4
		c0-11.8,10.3-26.2,21.6-26.2c8.8,0,13.3,4.9,13.3,13.4c0,11.5-9.1,22.6-28.4,26.3c3.9,4.9,10.6,8,20,8c37.2,0,66.6-37.2,67.4-62.5
		c0.8-31.2-27.8-31.7-35.2-28.4c-2.8,1.3-10.9,0.5-1.6-7.9c19.4-17.2,47.6-42.3,48.1-43.9c-8.2-3.5-13.1-8.7-23.7-8.7
		c-7.7,0-17.2,3.8-22.4,14.4c-1.1,2.1-3.9,1.6-2.4-0.9c4.7-7.7,12.6-22.6,24.8-22.6c10.9,0,16.9,14.2,24,14.2c3.9,0,6.5-5.4,9.6-9
		c6-7.3,11.2-3,6.8,3.5c-6.5,9.6-11.7,9.5-19.6,16.7c-4.6,4.1-19.6,17.7-31.9,29.5c-5.8,5.4-9.1,10.3-0.6,10.7
		c8.4,0.6,32.8,5.4,32.8,28.1c0,25.2-32.2,69.4-76.5,69.4C667.3,270.3,659.9,266.3,655.7,260z M673.3,221.9
		c-9,0-19.4,11.4-19.4,24.3c0,3.6,0.8,7.1,2.2,10.1c20.2-1.6,28.2-12.9,28.2-23.2C684.4,226.3,680.4,221.9,673.3,221.9z"/>
</g>
<g>
	<path d="M194.3,220c3.8,4.5,6.4,10.2,6.4,16.6c0,11.8-11.6,10.9-11.6-1.5c0-6,0.7-11.1,2-15.6c-5.8-5.6-14.2-8.9-22.7-8.9
		c-33.1,0-58.6,37.8-97.9,37.8c-75.3,0-87.7-113-0.2-113c10.7,0,22.7,1.6,36.2,5.5c2,0.5,1.5,2.7-2.2,1.8c-10.4-2.7-19.8-4-28.4-4
		c-78.6,0-71.9,108-5.1,108c36.7,0,61.8-38.2,97.5-38.2c8.4,0,17.1,3.3,23.5,8.9c20.4-58.2,153.3,17.6,153.3-39.5
		c0-1.8,3.1-1.8,3.1,0.4C348.2,237.8,216.5,176.3,194.3,220z M198.7,236.5c0-5.5-2-10.4-5.3-14.6c-1.5,3.6-2.4,8-2.4,13.1
		C191,245.1,198.7,245.2,198.7,236.5z"/>
</g>
<g>
	<path d="M548.3,176.3c0-2.2,3.1-2.2,3.1-0.4c0,57.1,133-18.7,153.3,39.5c6.4-5.6,15.1-8.9,23.5-8.9c35.7,0,60.8,38.2,97.5,38.2
		c66.8,0,73.5-108-5.1-108c-8.5,0-18,1.3-28.4,4c-3.6,0.9-4.2-1.3-2.2-1.8c13.5-3.8,25.5-5.5,36.2-5.5c87.5,0,75.1,113-0.2,113
		c-39.3,0-64.8-37.8-97.9-37.8c-8.6,0-16.9,3.3-22.7,8.9c1.3,4.5,2,9.6,2,15.6c0,12.4-11.6,13.3-11.6,1.5c0-6.4,2.5-12,6.4-16.6
		C680,174.3,548.3,235.8,548.3,176.3z M705.5,233.1c0-5.1-0.9-9.5-2.4-13.1c-3.3,4.2-5.3,9.1-5.3,14.6
		C697.8,243.3,705.5,243.1,705.5,233.1z"/>
</g>
<g>
	<path d="M534,69.2c4.7,9.1,7.4,19.2,7.4,29.9c0,21.1-21.5,21.1-21.5,0.3c0-14.1,3.9-24.5,10.8-32.2c-16.8-28.8-54.7-48.1-94.3-48.1
		c-61.6,0-65.4,64.3-4.7,64.3c1.4,0,1.6,1.9,0,1.9c-67.3,0-64-67.6,4.7-67.6c41.5,0,78.9,19.5,95.6,48.1
		c53.3-53.8,264.7,38.7,296.3-26.7c0.5-0.9,2,0,1.4,1.4C800.5,111.1,588.4,23.5,534,69.2z M539.7,99.3c0-10.2-2.5-20-7.1-28.9
		c-7.2,6.8-11.3,16.2-11.3,29.1C521.3,118.3,539.7,118.5,539.7,99.3z"/>
</g>
</svg>
